<svg xmlns="http://www.w3.org/2000/svg" viewBox="0 0 140 140">
  <defs>
    <style>
      .cls-1{fill:#686767;fill-rule:evenodd}
    </style>
  </defs>
  <path class="cls-1" d="M19.021 26.108L30.419 3.97h93.633l-24.24 37.067H70.783l10.024-15.028zM39.115 89.978h29.8l-6.715 10h59.026L73.042 138.91l8.044-18.916H19.273z"/>
  <path id="APP" class="cls-1" d="M27.109 81.025h7.278l2.5-6.347h11.632l2.581 6.347h7.447L45.515 51.067h-5.458zm19.168-11.933h-7.32l3.643-9.309zm15.275 11.933h6.6V69.346h4.824a20.585 20.585 0 004.4-.444 9.432 9.432 0 003.512-1.5 7.22 7.22 0 002.327-2.835 10.2 10.2 0 00.846-4.4 9.565 9.565 0 00-.91-4.422A7.392 7.392 0 0080.7 52.95a10.021 10.021 0 00-3.618-1.46 22.019 22.019 0 00-4.4-.423h-11.13v29.958zm6.6-24.373h3.385a18.932 18.932 0 011.946.106 5.805 5.805 0 011.841.487 3.521 3.521 0 011.354 1.079 2.972 2.972 0 01.529 1.841 3.48 3.48 0 01-.4 1.756 3.052 3.052 0 01-1.058 1.1 4.548 4.548 0 01-1.481.571 8.49 8.49 0 01-1.714.169h-4.4v-7.109zm20.057 24.373h6.6V69.346h4.824a20.585 20.585 0 004.4-.444 9.435 9.435 0 003.512-1.5 7.215 7.215 0 002.327-2.835 10.2 10.2 0 00.846-4.4 9.569 9.569 0 00-.909-4.422 7.4 7.4 0 00-2.454-2.793 10.028 10.028 0 00-3.618-1.46 22.028 22.028 0 00-4.4-.423H88.209v29.956zm6.6-24.373h3.385a18.929 18.929 0 011.946.106 5.807 5.807 0 011.841.487 3.521 3.521 0 011.354 1.079 2.974 2.974 0 01.529 1.841 3.488 3.488 0 01-.4 1.756 3.057 3.057 0 01-1.058 1.1 4.552 4.552 0 01-1.481.571 8.49 8.49 0 01-1.714.169h-4.4v-7.109z"/>
</svg>
